<?xml version="1.0" encoding="UTF-8"?>
<!DOCTYPE svg PUBLIC "-//W3C//DTD SVG 1.1//EN" "http://www.w3.org/Graphics/SVG/1.1/DTD/svg11.dtd">
<svg version="1.1" xmlns="http://www.w3.org/2000/svg" xmlns:xlink="http://www.w3.org/1999/xlink" x="0" y="0" width="187.712" height="76.42" viewBox="0, 0, 187.712, 76.42">
  <g id="Layer_1">
    <g>
      <path d="M16.377,26.028 C16.377,21.026 13.359,16.962 9.651,16.962 L2.924,16.962 L2.924,35.093 L9.651,35.093 C13.359,35.093 16.377,31.028 16.377,26.028 M2.924,16.377 L9.651,16.377 C12.669,16.377 15.12,12.832 15.12,8.481 C15.12,4.129 12.669,0.585 9.651,0.585 L2.924,0.585 z M19.301,26.028 C19.301,31.35 14.973,35.678 9.651,35.678 L0,35.678 L0,0 L9.651,0 C14.33,0 18.131,3.802 18.131,8.481 C18.131,12.382 15.482,15.663 11.897,16.652 C16.137,17.663 19.301,21.477 19.301,26.028" fill="#000000"/>
      <path d="M38.153,22.431 L43.429,4.79 L52.734,35.678 L55.431,35.678 L44.68,0 L44.248,0 L33.702,35.274 L33.579,35.678 L34.194,35.678" fill="#000000"/>
      <path d="M90.418,17.839 C90.418,8.323 84.517,0.585 77.258,0.585 L72.287,0.585 L72.287,35.094 L77.258,35.094 C84.517,35.094 90.418,27.355 90.418,17.839 M93.343,17.839 C93.343,27.677 86.125,35.678 77.258,35.678 L69.362,35.678 L69.362,0 L77.258,0 C86.125,0 93.343,8.001 93.343,17.839" fill="#000000"/>
      <path d="M107.639,-0 L110.563,-0 L110.563,35.678 L107.639,35.678 z" fill="#000000"/>
      <path d="M131.962,15.581 L140.571,35.678 L137.594,35.678 L130.231,18.494 L128.136,22.015 L128.136,35.678 L125.212,35.678 L125.212,0 L128.136,0 L128.136,20.869 L140.542,0 L141.227,0 z" fill="#000000"/>
      <path d="M185.372,17.868 C184.408,8.662 177.441,1.17 169.844,1.17 C166.685,1.17 163.738,2.503 161.556,4.931 C158.696,8.107 157.356,12.798 157.883,17.81 C158.848,27.016 165.814,34.508 173.412,34.508 C176.57,34.508 179.518,33.175 181.7,30.747 C184.56,27.571 185.899,22.881 185.372,17.868 M187.712,17.839 C187.712,27.677 180.495,35.678 171.628,35.678 C162.761,35.678 155.544,27.677 155.544,17.839 C155.544,8.001 162.761,0 171.628,0 C180.495,0 187.712,8.001 187.712,17.839" fill="#000000"/>
    </g>
    <path d="M76.37,76.42 C76.555,76.397 76.602,76.397 76.648,75.655 C76.81,73.822 77.414,70.389 78.829,65.911 C79.687,63.267 80.174,61.852 82.169,56.864 C83.445,53.616 85.023,50.322 85.023,48.582 C85.023,47.84 84.721,47.376 84.118,47.376 C83.19,47.376 81.659,48.443 79.409,50.647 C76.115,53.825 72.844,57.954 69.039,63.661 C67.021,66.839 67.949,65.355 65.884,68.649 C65.884,68.347 67.485,64.218 68.668,61.341 C72.751,51.598 73.609,49.464 73.632,48.373 C73.632,47.84 73.4,47.585 73.029,47.585 C72.82,47.585 72.565,47.654 72.287,47.817 C69.41,49.603 59.968,63.058 58.02,66.19 L55.677,69.901 C55.677,70.319 52.754,73.474 52.731,74.634 C52.731,74.912 52.823,75.121 53.009,75.121 C53.079,75.121 53.148,75.098 53.241,75.028 C53.357,74.936 53.89,74.1 54.47,73.149 C58.136,67.141 64.26,57.885 68.714,52.387 C71.104,49.44 72.496,48.118 72.96,48.118 C73.052,48.118 73.099,48.188 73.099,48.373 C73.099,49 72.542,50.415 70.663,54.962 C69.573,57.537 67.23,62.988 66.116,66.143 C65.698,67.257 64.608,69.716 64.167,71.038 C64.098,71.317 64.028,71.595 64.028,71.804 C64.028,72.059 64.121,72.245 64.33,72.245 C64.492,72.245 64.724,72.082 64.91,71.665 C65.374,70.551 67.786,66.074 69.341,63.731 C72.867,58.349 76.671,53.639 80.105,50.368 C81.729,48.861 83.19,47.724 84.072,47.724 C84.373,47.724 84.605,47.793 84.605,48.304 C84.605,50.16 81.775,56.493 81.566,56.934 C79.919,61.04 79.386,62.432 78.504,65.239 C77.367,68.95 76.091,73.868 76.091,75.678 C76.091,76.142 76.184,76.42 76.37,76.42 z" fill="#000000"/>
    <path d="M83.654,64.659 L83.608,64.635 C83.608,64.427 84.837,63.174 85.463,62.756 C85.765,62.548 85.974,62.455 86.09,62.455 C86.159,62.455 86.206,62.478 86.206,62.548 C86.206,62.803 85.649,63.476 84.512,64.195 C84.072,64.45 83.724,64.659 83.654,64.659 z M84.373,68.046 C85.255,68.046 86.322,67.744 87.667,66.978 C89.314,66.027 90.544,64.891 90.567,64.728 C90.567,64.682 90.521,64.659 90.451,64.659 C90.405,64.659 90.358,64.682 90.289,64.728 C88.92,65.819 86.6,67.651 84.257,67.651 C83.376,67.651 82.819,67.257 82.819,66.515 C82.819,66.213 82.888,65.888 83.004,65.563 C83.167,65.215 83.213,65.146 83.468,65.146 L83.677,65.169 C84.721,65.169 86.832,63.545 86.832,62.478 C86.832,62.037 86.67,61.875 86.345,61.828 C85.278,61.828 82.865,64.264 82.425,65.819 C82.378,66.027 82.332,66.236 82.332,66.445 C82.332,67.512 83.144,68.046 84.373,68.046 z" fill="#000000"/>
    <path d="M90.915,71.85 C90.451,71.85 90.219,71.549 90.219,71.108 C90.219,70.783 90.335,70.389 90.544,69.948 C91.797,67.489 95.276,66.051 96.065,65.888 C96.158,65.888 96.204,65.958 96.204,66.027 L96.181,66.12 C95.392,67.79 93.467,70.853 91.797,71.618 C91.449,71.781 91.147,71.85 90.915,71.85 z M93.838,58.859 C93.838,58.581 97.109,53.059 98.153,51.691 C98.362,51.389 99.383,50.044 99.777,50.044 C99.939,50.067 99.986,50.16 99.986,50.368 C99.986,51.204 98.733,53.338 98.524,53.686 C96.831,56.191 94.001,58.859 93.838,58.859 z M90.938,72.384 C92.353,72.384 94.58,70.157 96.088,67.419 C96.506,66.654 96.9,65.819 96.947,65.772 C97.016,65.61 97.063,65.563 97.295,65.471 C97.944,65.169 99.684,64.867 100.705,64.867 L101.099,64.891 C101.447,64.891 101.424,64.844 101.447,64.775 C101.447,64.705 101.285,64.682 101.192,64.682 L100.728,64.659 C99.452,64.659 98.385,65.007 97.248,65.169 C97.202,65.169 97.179,65.146 97.179,65.099 C97.179,65.03 97.225,64.937 97.248,64.844 C97.364,64.427 97.434,63.986 97.434,63.592 C97.387,62.594 96.993,61.944 96.297,61.805 L95.787,61.759 C93.513,61.759 91.681,64.287 90.358,65.981 C90.822,64.798 92.423,61.04 93.397,59.764 C93.792,59.485 96.97,56.4 98.617,53.779 C98.965,53.222 100.218,51.18 100.218,50.183 C100.218,49.788 100.055,49.626 99.707,49.626 C99.591,49.626 99.475,49.649 99.359,49.719 C97.735,50.67 94.232,56.841 94.093,57.05 C93.56,58.093 92.864,59.161 92.539,59.161 C92.214,59.161 91.843,59.439 91.82,59.764 C91.82,60.112 92.075,60.181 92.075,60.506 C92.075,60.645 92.029,60.831 91.913,61.086 C91.24,62.617 89.802,65.633 89.5,66.746 L89.477,66.909 C89.477,67.141 89.616,67.21 89.732,67.21 C89.894,67.21 90.057,67.094 90.219,66.886 C91.356,65.54 93.745,62.269 95.787,62.269 C96.622,62.316 96.9,62.733 96.9,63.592 C96.9,64.102 96.761,64.612 96.645,64.983 C96.552,65.262 96.46,65.262 95.996,65.471 C93.49,66.538 91.472,67.582 90.242,69.646 C89.964,70.087 89.778,70.644 89.778,71.131 C89.778,71.827 90.196,72.384 90.938,72.384 z" fill="#000000"/>
    <path d="M101.888,64.659 L101.842,64.635 C101.842,64.427 103.071,63.174 103.697,62.756 C103.999,62.548 104.208,62.455 104.324,62.455 C104.393,62.455 104.44,62.478 104.44,62.548 C104.44,62.803 103.883,63.476 102.746,64.195 C102.306,64.45 101.958,64.659 101.888,64.659 z M102.607,68.046 C103.489,68.046 104.556,67.744 105.901,66.978 C107.548,66.027 108.778,64.891 108.801,64.728 C108.801,64.682 108.755,64.659 108.685,64.659 C108.639,64.659 108.592,64.682 108.523,64.728 C107.154,65.819 104.834,67.651 102.491,67.651 C101.61,67.651 101.053,67.257 101.053,66.515 C101.053,66.213 101.122,65.888 101.238,65.563 C101.401,65.215 101.447,65.146 101.702,65.146 L101.911,65.169 C102.955,65.169 105.066,63.545 105.066,62.478 C105.066,62.037 104.904,61.875 104.579,61.828 C103.512,61.828 101.099,64.264 100.658,65.819 C100.612,66.027 100.566,66.236 100.566,66.445 C100.566,67.512 101.378,68.046 102.607,68.046 z" fill="#000000"/>
    <path d="M110.587,61.805 C110.541,61.805 110.518,61.782 110.518,61.736 C110.657,61.225 112.513,58.302 113.325,57.119 C117.013,51.714 120.168,48.768 121.444,48.768 C121.723,48.768 121.885,48.907 121.885,49.232 C121.885,49.58 121.699,50.136 121.259,50.879 C120.447,52.34 118.521,54.683 116.549,56.771 C113.928,59.462 111.075,61.805 110.587,61.805 z M110.263,71.293 C110.773,71.293 111.33,71.154 111.956,70.876 C112.629,70.551 112.954,70.296 113.974,69.368 C115.691,67.698 117.918,65.447 118.173,65.007 C118.289,64.775 118.289,64.775 118.289,64.728 C118.289,64.705 118.266,64.682 118.22,64.682 C118.173,64.682 118.08,64.728 117.941,64.867 C116.41,66.236 113.534,69.53 111.979,70.319 C111.376,70.644 110.819,70.783 110.332,70.783 C109.126,70.783 108.453,69.925 108.384,68.254 C108.384,66.236 109.868,62.408 110.402,62.269 C111.237,62.107 113.534,60.135 116.596,56.957 C120.632,52.92 122.071,50.832 122.187,49.139 C122.187,48.513 121.908,48.234 121.444,48.234 C120.864,48.234 119.983,48.675 118.962,49.51 C116.828,51.343 113.673,55.286 111.191,59.369 C109.636,61.921 107.85,65.424 107.85,68.092 C107.85,70.041 108.801,71.293 110.263,71.293 z" fill="#000000"/>
  </g>
</svg>
