<svg width="176" height="51" viewBox="0 0 176 51" fill="none" xmlns="http://www.w3.org/2000/svg">
<rect y="0.0583496" width="176" height="50" fill="#D9D9D9"/>
<path d="M43.4453 30.0583H42.2852V22.365H38.2715V30.0583H37.1113V21.3337H43.4453V30.0583ZM45.2207 30.0583V21.3337H50.6758V22.365H46.3809V24.7556H50.3828V25.7869H46.3809V29.0271H50.6758V30.0583H45.2207ZM57.4668 23.9646C57.4668 24.3435 57.3984 24.7029 57.2617 25.0427C57.1289 25.3787 56.9434 25.6658 56.7051 25.9041C56.4043 26.2009 56.0508 26.4255 55.6445 26.5779C55.2383 26.7302 54.7246 26.8064 54.1035 26.8064H53.1191V30.0583H51.959V21.3337H54.1504C54.666 21.3337 55.1055 21.3767 55.4688 21.4626C55.832 21.5486 56.1523 21.6873 56.4297 21.8787C56.7539 22.1013 57.0078 22.3845 57.1914 22.7283C57.375 23.0681 57.4668 23.4802 57.4668 23.9646ZM56.2598 23.9939C56.2598 23.6931 56.207 23.4314 56.1016 23.2087C56 22.9861 55.8438 22.8044 55.6328 22.6638C55.4492 22.5427 55.2344 22.4568 54.9883 22.406C54.7461 22.3552 54.4434 22.3298 54.0801 22.3298H53.1191V25.8162H53.9102C54.3789 25.8162 54.7578 25.7791 55.0469 25.7048C55.3359 25.6267 55.5762 25.49 55.7676 25.2947C55.9395 25.1189 56.0645 24.9275 56.1426 24.7205C56.2207 24.5134 56.2598 24.2712 56.2598 23.9939ZM58.5801 30.0583V21.3337H64.0352V22.365H59.7402V24.7556H63.7422V25.7869H59.7402V29.0271H64.0352V30.0583H58.5801ZM71.5879 30.0583H70.4336V23.1326L66.4902 30.0583H65.3184V21.3337H66.4727V28.1482L70.3633 21.3337H71.5879V30.0583ZM70.7324 18.7205C70.7168 19.3064 70.5312 19.7791 70.1758 20.1384C69.8203 20.4978 69.2832 20.6775 68.5645 20.6775C67.8457 20.6775 67.3086 20.4978 66.9531 20.1384C66.5977 19.7791 66.4121 19.3064 66.3965 18.7205H67.4395C67.4473 19.158 67.5449 19.4744 67.7324 19.6697C67.9199 19.8611 68.1973 19.9568 68.5645 19.9568C68.9355 19.9568 69.2129 19.8611 69.3965 19.6697C69.584 19.4783 69.6816 19.1619 69.6895 18.7205H70.7324ZM75.3965 30.0583V22.365H72.4668V21.3337H79.4863V22.365H76.5566V30.0583H75.3965ZM86.6348 30.0583H85.4805V23.1326L81.5371 30.0583H80.3652V21.3337H81.5195V28.1482L85.4102 21.3337H86.6348V30.0583ZM98.4883 30.0583H97.3281V25.7869H93.3145V30.0583H92.1543V21.3337H93.3145V24.7556H97.3281V21.3337H98.4883V30.0583ZM99.3203 30.0583L102.262 21.3337H103.691L106.633 30.0583H105.408L104.617 27.6208H101.283L100.492 30.0583H99.3203ZM104.295 26.6306L102.947 22.5173L101.605 26.6306H104.295ZM114.619 30.2166C114.049 30.2166 113.523 30.1208 113.043 29.9294C112.566 29.738 112.154 29.4529 111.807 29.074C111.459 28.6951 111.189 28.2224 110.998 27.656C110.807 27.0896 110.711 26.4392 110.711 25.7048C110.711 24.9744 110.803 24.3376 110.986 23.7947C111.174 23.2517 111.445 22.7791 111.801 22.3767C112.148 21.9861 112.561 21.6892 113.037 21.4861C113.514 21.2791 114.047 21.1755 114.637 21.1755C114.93 21.1755 115.203 21.197 115.457 21.24C115.715 21.283 115.953 21.3376 116.172 21.4041C116.359 21.4626 116.551 21.5369 116.746 21.6267C116.945 21.7126 117.141 21.8083 117.332 21.9138V23.3142H117.238C117.137 23.2205 117.006 23.1072 116.846 22.9744C116.686 22.8416 116.49 22.7107 116.26 22.5818C116.037 22.4607 115.795 22.3611 115.533 22.283C115.271 22.2048 114.969 22.1658 114.625 22.1658C114.254 22.1658 113.902 22.2419 113.57 22.3943C113.238 22.5466 112.947 22.7712 112.697 23.0681C112.451 23.365 112.26 23.738 112.123 24.1873C111.986 24.6365 111.918 25.1423 111.918 25.7048C111.918 26.3025 111.99 26.8181 112.135 27.2517C112.279 27.6814 112.477 28.0447 112.727 28.3416C112.969 28.6306 113.254 28.8494 113.582 28.9978C113.91 29.1423 114.258 29.2146 114.625 29.2146C114.961 29.2146 115.271 29.1736 115.557 29.0916C115.842 29.0095 116.096 28.906 116.318 28.781C116.533 28.6599 116.719 28.5369 116.875 28.4119C117.031 28.283 117.154 28.1736 117.244 28.0837H117.332V29.4666C117.141 29.5564 116.959 29.6423 116.787 29.7244C116.619 29.8064 116.414 29.8865 116.172 29.9646C115.918 30.0466 115.682 30.1091 115.463 30.1521C115.248 30.1951 114.967 30.2166 114.619 30.2166ZM117.473 30.0583L120.414 21.3337H121.844L124.785 30.0583H123.561L122.77 27.6208H119.436L118.645 30.0583H117.473ZM122.447 26.6306L121.1 22.5173L119.758 26.6306H122.447ZM131.881 30.0583H130.727V23.1326L126.783 30.0583H125.611V21.3337H126.766V28.1482L130.656 21.3337H131.881V30.0583ZM131.025 18.7205C131.01 19.3064 130.824 19.7791 130.469 20.1384C130.113 20.4978 129.576 20.6775 128.857 20.6775C128.139 20.6775 127.602 20.4978 127.246 20.1384C126.891 19.7791 126.705 19.3064 126.689 18.7205H127.732C127.74 19.158 127.838 19.4744 128.025 19.6697C128.213 19.8611 128.49 19.9568 128.857 19.9568C129.229 19.9568 129.506 19.8611 129.689 19.6697C129.877 19.4783 129.975 19.1619 129.982 18.7205H131.025ZM135.689 30.0583V22.365H132.76V21.3337H139.779V22.365H136.85V30.0583H135.689Z" fill="black"/>
</svg>
